<?xml version="1.0" encoding="UTF-8" standalone="no"?>
<svg
   height="30.296902"
   viewBox="0 0 30.298828 30.296902"
   width="30.298828"
   version="1.1"
   id="svg2"
   xml:space="preserve"
   sodipodi:docname="header.svg"
   xmlns:inkscape="http://www.inkscape.org/namespaces/inkscape"
   xmlns:sodipodi="http://sodipodi.sourceforge.net/DTD/sodipodi-0.dtd"
   xmlns="http://www.w3.org/2000/svg"
   xmlns:svg="http://www.w3.org/2000/svg"><sodipodi:namedview
     id="namedview1"
     pagecolor="#ffffff"
     bordercolor="#000000"
     borderopacity="0.25"
     inkscape:showpageshadow="2"
     inkscape:pageopacity="0.0"
     inkscape:pagecheckerboard="0"
     inkscape:deskcolor="#d1d1d1" /><defs
     id="defs2" /><path
     id="path106-3-4"
     clip-path="none"
     style="fill:#ffffff;fill-opacity:1;fill-rule:nonzero;stroke:none;stroke-width:0.712543"
     d="M 16.952893,29.4498 V 18.8201 h 3.5677 l 0.5344,-4.1413 h -4.1021 v -2.645 c 0,-1.1992 0.3328,-2.0165 2.0528,-2.0165 l 2.194,-7e-4 V 6.3105998 c -0.3798,-0.051 -1.6816,-0.1617 -3.1965,-0.1617 -3.163,0 -5.3277,1.9303 -5.3277,5.4738002 v 3.0561 h -3.577 v 4.1413 h 3.577 V 29.4498 Z M 15.148393,1.7150795e-8 C 6.782493,1.7150795e-8 -7.0312501e-6,6.7824998 -7.0312501e-6,15.1485 -7.0312501e-6,23.5151 6.782493,30.2969 15.148393,30.2969 c 8.366,0 15.1504,-6.7818 15.1504,-15.1484 C 30.298793,6.7824998 23.514393,1.7150792e-8 15.148393,1.7150795e-8 Z M 15.148393,1.0098 c 7.8088,0 14.1387,6.3305998 14.1387,14.1387 0,7.8087 -6.3299,14.1386 -14.1387,14.1386 -7.808,0 -14.1386,-6.3299 -14.1386,-14.1386 0,-7.8081002 6.3306,-14.1387 14.1386,-14.1387 z" /></svg>
