<?xml version="1.0" encoding="UTF-8" standalone="no"?>
<svg
   height="30.296902"
   viewBox="0 0 30.296875 30.296902"
   width="30.296875"
   version="1.1"
   id="svg2"
   xml:space="preserve"
   sodipodi:docname="header.svg"
   xmlns:inkscape="http://www.inkscape.org/namespaces/inkscape"
   xmlns:sodipodi="http://sodipodi.sourceforge.net/DTD/sodipodi-0.dtd"
   xmlns="http://www.w3.org/2000/svg"
   xmlns:svg="http://www.w3.org/2000/svg"><sodipodi:namedview
     id="namedview1"
     pagecolor="#ffffff"
     bordercolor="#000000"
     borderopacity="0.25"
     inkscape:showpageshadow="2"
     inkscape:pageopacity="0.0"
     inkscape:pagecheckerboard="0"
     inkscape:deskcolor="#d1d1d1" /><defs
     id="defs2" /><path
     id="path112-2-1"
     clip-path="none"
     style="fill:#ffffff;fill-opacity:1;fill-rule:nonzero;stroke:none;stroke-width:0.712543"
     d="m 20.553924,8.5278998 c -0.6705,0 -1.2149,0.5443 -1.2149,1.2149 0,0.6712002 0.5444,1.2156002 1.2149,1.2156002 0.6712,0 1.2156,-0.5444 1.2156,-1.2156002 0,-0.6706 -0.5444,-1.2149 -1.2156,-1.2149 m -5.4054,9.9962002 c -1.8647,0 -3.3753,-1.5113 -3.3753,-3.3753 0,-1.864 1.5106,-3.3753 3.3753,-3.3753 1.8641,0 3.3754,1.5113 3.3754,3.3753 0,1.864 -1.5113,3.3753 -3.3754,3.3753 m 0,-8.5754002 c -2.8722,0 -5.2007998,2.3279002 -5.2007998,5.2001002 0,2.8716 2.3285998,5.2002 5.2007998,5.2002 2.8716,0 5.2002,-2.3286 5.2002,-5.2002 0,-2.8722 -2.3286,-5.2001002 -5.2002,-5.2001002 m 0,-4.9273 c -2.7504,0 -3.0952,0.012 -4.1755,0.061 -1.0779998,0.049 -1.8140998,0.2209 -2.4581998,0.4703 -0.6655,0.2586 -1.2306,0.6057 -1.7935,1.1686 -0.5629,0.5629 -0.9092,1.1279 -1.1679,1.7934 -0.2508,0.6449 -0.4218,1.3802 -0.471,2.4590002 -0.049,1.0795 -0.061,1.4244 -0.061,4.1748 0,2.7497 0.012,3.0953 0.061,4.1748 0.049,1.0781 0.2202,1.8141 0.471,2.459 0.2587,0.6655 0.605,1.2306 1.1679,1.7935 0.5629,0.5629 1.128,0.9092 1.7935,1.1678 0.6441,0.2501 1.3802,0.4219 2.4581998,0.471 1.0803,0.049 1.4251,0.061 4.1755,0.061 2.7498,0 3.0953,-0.011 4.1748,-0.061 1.0781,-0.049 1.8142,-0.2209 2.459,-0.471 0.6655,-0.2586 1.2299,-0.6049 1.7928,-1.1678 0.5636,-0.5629 0.9099,-1.128 1.1686,-1.7935 0.2501,-0.6449 0.4218,-1.3809 0.4709,-2.459 0.048,-1.0795 0.061,-1.4251 0.061,-4.1748 0,-2.7504 -0.012,-3.0953 -0.061,-4.1748 -0.049,-1.0788002 -0.2208,-1.8141002 -0.4709,-2.4590002 -0.2587,-0.6655 -0.605,-1.2305 -1.1686,-1.7934 -0.5629,-0.5629 -1.1273,-0.91 -1.7928,-1.1686 -0.6448,-0.2494 -1.3809,-0.4211 -2.459,-0.4703 -1.0795,-0.049 -1.425,-0.061 -4.1748,-0.061 m 0,1.8256 c 2.7041,0 3.0241,0.01 4.0922,0.059 0.9869,0.044 1.5234,0.2095 1.8804,0.3484 0.4724,0.1839 0.8101,0.4026 1.1643,0.7568 0.3548,0.3548 0.5736,0.6918 0.7574,1.165 0.139,0.357 0.3036,0.8928002 0.3484,1.8804002 0.049,1.0681 0.059,1.388 0.059,4.0921 0,2.7041 -0.01,3.0241 -0.059,4.0922 -0.045,0.9875 -0.2094,1.5234 -0.3484,1.8804 -0.1838,0.4724 -0.4026,0.8101 -0.7574,1.1643 -0.3542,0.3548 -0.6919,0.5735 -1.1643,0.7574 -0.357,0.1382 -0.8935,0.3042 -1.8804,0.3484 -1.0681,0.049 -1.3881,0.059 -4.0922,0.059 -2.7048,0 -3.0247,-0.01 -4.0921,-0.059 -0.9876,-0.044 -1.5240998,-0.2102 -1.8810998,-0.3484 -0.4724,-0.1839 -0.8095,-0.4026 -1.1643,-0.7574 -0.3541,-0.3542 -0.5736,-0.6919 -0.7574,-1.1643 -0.1383,-0.357 -0.3036,-0.8929 -0.3485,-1.8804 -0.049,-1.0681 -0.059,-1.3881 -0.059,-4.0922 0,-2.7041 0.01,-3.024 0.059,-4.0921 0.045,-0.9876 0.2102,-1.5234002 0.3485,-1.8804002 0.1838,-0.4732 0.4033,-0.8102 0.7574,-1.165 0.3548,-0.3542 0.6919,-0.5729 1.1643,-0.7568 0.357,-0.1389 0.8934998,-0.3042 1.8810998,-0.3484 1.0674,-0.049 1.388,-0.059 4.0921,-0.059 M 15.148424,1.7150796e-8 C 6.7824242,1.7150796e-8 2.421875e-5,6.7824998 2.421875e-5,15.1485 c 0,8.3666 6.78239998125,15.1484 15.14839978125,15.1484 8.366,0 15.1484,-6.7818 15.1484,-15.1484 C 30.296824,6.7824998 23.514424,1.7150792e-8 15.148424,1.7150796e-8 Z M 15.148424,1.0098 c 7.808,0 14.1386,6.3286998 14.1386,14.1367 0,7.8088 -6.3306,14.1406 -14.1386,14.1406 -7.8087998,0 -14.1386998,-6.3318 -14.1386998,-14.1406 0,-7.8080002 6.3299,-14.1367 14.1386998,-14.1367 z" /></svg>
