<?xml version="1.0" encoding="UTF-8" standalone="no"?>
<svg
   height="28.778242"
   viewBox="0 0 22.915783 28.778242"
   width="22.915783"
   version="1.1"
   id="svg2"
   xml:space="preserve"
   sodipodi:docname="header.svg"
   xmlns:inkscape="http://www.inkscape.org/namespaces/inkscape"
   xmlns:sodipodi="http://sodipodi.sourceforge.net/DTD/sodipodi-0.dtd"
   xmlns="http://www.w3.org/2000/svg"
   xmlns:svg="http://www.w3.org/2000/svg"><sodipodi:namedview
     id="namedview1"
     pagecolor="#ffffff"
     bordercolor="#000000"
     borderopacity="0.25"
     inkscape:showpageshadow="2"
     inkscape:pageopacity="0.0"
     inkscape:pagecheckerboard="0"
     inkscape:deskcolor="#d1d1d1" /><defs
     id="defs2" /><path
     id="circle5"
     style="color:#000000;fill:#ffffff;stroke-linecap:round;stroke-linejoin:round;-inkscape-stroke:none"
     d="m 11.962765,7.4320481 a 1,1 0 0 0 -1.195313,0.751953 1,1 0 0 0 0.751953,1.197265 c 3.35777,0.7645379 5.444225,4.0797309 4.679688,7.4374999 a 1,1 0 0 0 0.751953,1.197266 1,1 0 0 0 1.197266,-0.751953 C 19.152815,12.852404 16.37444,8.4365511 11.962765,7.4320481 Z m 1.013672,-4.447266 a 1,1 0 0 0 -1.197266,0.753906 1,1 0 0 0 0.751953,1.197266 c 5.813393,1.323663 9.436945,7.0830899 8.113281,12.8964839 a 1,1 0 0 0 0.753907,1.197266 1,1 0 0 0 1.197265,-0.753906 c 1.56363,-6.8673 -2.751842,-13.7273869 -9.61914,-15.2910159 z M 7.0812999,0.02246307 7.1788599,8.0696521 c 1.068605,0.07564 1.991289,-0.602074 2.135427,-1.545806 0.219229,-1.435391 0.22199,-3.579879 -0.09873,-5.322693 C 9.0691659,0.40565107 7.8753819,0.03466907 7.0813019,0.02246307 Z M 21.247603,24.026216 c -0.375017,-1.212842 -3.873699,-4.042517 -5.170386,-4.20893 -0.882847,-0.113302 -1.446259,0.300807 -2.029897,0.969707 l 6.60124,5.348381 c 0.431321,-0.610224 0.8134,-1.415907 0.599043,-2.109158 z M 8.6499023e-7,5.4783601 C 0.01309086,3.4736381 1.2183919,1.4983671 3.1078839,0.79132107 c 0.82313,-0.308014 1.606293,-0.816389 3.166962,-0.79035899738 L 6.4470009,8.3893271 c -1.405406,0.528357 -1.879452,2.2751709 -1.278462,3.5671809 1.607566,3.12826 3.127886,6.318167 5.0297561,9.281632 0.691311,1.097082 2.211268,1.071688 3.207264,0.445854 l 6.609642,5.194672 c -1.464152,1.348376 -3.44908,1.935097 -4.836456,1.89792 -1.387376,-0.03718 -2.618796,-0.158668 -3.613267,-0.637003 C 8.1453079,26.660764 6.2155859,23.794068 4.1105249,20.83962 2.7353659,19.008689 1.6930699,16.938592 1.1438379,14.709693 0.34120386,11.70301 0.04297286,8.5823811 8.6499023e-7,5.4783601 Z" /></svg>
