<?xml version="1.0" encoding="UTF-8" standalone="no"?>
<svg
   height="22.239302"
   viewBox="0 0 31.770996 22.239302"
   width="31.770996"
   version="1.1"
   id="svg2"
   xml:space="preserve"
   sodipodi:docname="header.svg"
   xmlns:inkscape="http://www.inkscape.org/namespaces/inkscape"
   xmlns:sodipodi="http://sodipodi.sourceforge.net/DTD/sodipodi-0.dtd"
   xmlns="http://www.w3.org/2000/svg"
   xmlns:svg="http://www.w3.org/2000/svg"><sodipodi:namedview
     id="namedview1"
     pagecolor="#ffffff"
     bordercolor="#000000"
     borderopacity="0.25"
     inkscape:showpageshadow="2"
     inkscape:pageopacity="0.0"
     inkscape:pagecheckerboard="0"
     inkscape:deskcolor="#d1d1d1" /><defs
     id="defs2" /><path
     id="path1-7-3"
     clip-path="none"
     style="fill:#ffffff;fill-opacity:1;fill-rule:nonzero;stroke:none;stroke-width:0.261528"
     d="m 15.884113,3.6243301e-7 c 0,0 -9.9336001,-7.0000000301e-4 -12.4112001,0.66319999756699 -1.367,0.36540004 -2.4443,1.44260004 -2.80970001,2.80960004 C -4.8710938e-4,5.9506004 1.2890625e-5,11.1197 1.2890625e-5,11.1197 c 0,0 -5.00000005e-4,5.1694 0.663199999375,7.6468 0.36540001,1.367 1.44270001,2.4442 2.80970001,2.8096 2.4776,0.6641 12.4112001,0.6632 12.4112001,0.6632 0,0 9.9364,9e-4 12.414,-0.6632 1.367,-0.3654 2.4443,-1.4426 2.8097,-2.8096 0.664,-2.4774 0.6632,-7.6468 0.6632,-7.6468 0,0 8e-4,-5.1690996 -0.6632,-7.6468996 -0.3654,-1.367 -1.4427,-2.4442 -2.8097,-2.80960004 C 25.820513,-6.9963757e-4 15.884113,3.6243302e-7 15.884113,3.6243301e-7 Z M 12.707813,6.3552004 l 8.2536,4.7644996 -8.2536,4.7671 z" /></svg>
